<?xml version="1.0" encoding="UTF-8" standalone="no"?>
<!-- Created with Inkscape (http://www.inkscape.org/) -->

<svg
   xmlns:dc="http://purl.org/dc/elements/1.1/"
   xmlns:cc="http://creativecommons.org/ns#"
   xmlns:rdf="http://www.w3.org/1999/02/22-rdf-syntax-ns#"
   xmlns:svg="http://www.w3.org/2000/svg"
   xmlns="http://www.w3.org/2000/svg"
   xmlns:sodipodi="http://sodipodi.sourceforge.net/DTD/sodipodi-0.dtd"
   xmlns:inkscape="http://www.inkscape.org/namespaces/inkscape"
   width="445.94858mm"
   height="63.50301mm"
   viewBox="0 0 445.94857 63.50301"
   version="1.1"
   id="svg441"
   sodipodi:docname="teletext4.svg"
   inkscape:version="0.92.4 (5da689c313, 2019-01-14)"
   inkscape:export-filename="C:\Users\Creep\sdadasdsa.png"
   inkscape:export-xdpi="184.59315"
   inkscape:export-ydpi="184.59315">
  <defs
     id="defs435" />
  <sodipodi:namedview
     id="base"
     pagecolor="#ffffff"
     bordercolor="#666666"
     borderopacity="1.0"
     inkscape:pageopacity="0.0"
     inkscape:pageshadow="2"
     inkscape:zoom="0.67932936"
     inkscape:cx="119.80333"
     inkscape:cy="87.857518"
     inkscape:document-units="mm"
     inkscape:current-layer="layer1"
     showgrid="true"
     inkscape:window-width="1920"
     inkscape:window-height="1017"
     inkscape:window-x="-8"
     inkscape:window-y="-8"
     inkscape:window-maximized="1"
     fit-margin-top="0"
     fit-margin-left="0"
     fit-margin-right="0"
     fit-margin-bottom="0"
     inkscape:snap-global="true"
     showguides="false">
    <inkscape:grid
       type="xygrid"
       id="grid445"
       empspacing="10"
       originx="9.2535837"
       originy="-160.92098"
       color="#c0dacb"
       opacity="0.1254902" />
  </sodipodi:namedview>
  <metadata
     id="metadata438">
    <rdf:RDF>
      <cc:Work
         rdf:about="">
        <dc:format>image/svg+xml</dc:format>
        <dc:type
           rdf:resource="http://purl.org/dc/dcmitype/StillImage" />
        <dc:title></dc:title>
      </cc:Work>
    </rdf:RDF>
  </metadata>
  <g
     inkscape:groupmode="layer"
     id="layer2"
     inkscape:label="Layer 2"
     transform="translate(9.2535831,-72.576013)">
    <g
       style="fill:#000000;fill-opacity:1"
       id="g1330"
       transform="translate(2.6458333,2.6458367)">
      <path
         style="fill:#f4f4f4;fill-opacity:0.95686275;stroke:#f4f4f4;stroke-width:0.26499999;stroke-linecap:butt;stroke-linejoin:miter;stroke-miterlimit:4;stroke-dasharray:none;stroke-opacity:0.95686275"
         d="m 63.5,74.75 v 15.875 h 15.874999 v 42.33333 h 15.875 V 90.625 H 111.125 V 74.75 Z"
         id="path1314"
         inkscape:connector-curvature="0"
         sodipodi:nodetypes="ccccccccc" />
      <path
         style="fill:#f4f4f4;fill-opacity:0.95686275;stroke:#f4f4f4;stroke-width:0.26499999;stroke-linecap:butt;stroke-linejoin:miter;stroke-miterlimit:4;stroke-dasharray:none;stroke-opacity:0.95686275"
         d="m 116.41667,74.75 v 58.20833 h 37.04166 v -15.875 h -15.875 v -5.29166 h 15.875 V 95.916667 h -15.875 V 90.625 h 15.875 V 74.75 Z"
         id="path1316"
         inkscape:connector-curvature="0" />
      <path
         style="fill:#f4f4f4;fill-opacity:0.95686275;stroke:#f4f4f4;stroke-width:0.26499999;stroke-linecap:butt;stroke-linejoin:miter;stroke-miterlimit:4;stroke-dasharray:none;stroke-opacity:0.95686275"
         d="m 158.75,74.75 v 58.20833 h 37.04166 v -15.875 h -15.875 V 74.75 Z"
         id="path1318"
         inkscape:connector-curvature="0" />
      <path
         inkscape:connector-curvature="0"
         id="path1320"
         d="m 201.08333,74.75 v 58.20833 h 37.04166 v -15.875 h -15.875 v -5.29166 h 15.875 V 95.916667 h -15.875 V 90.625 h 15.875 V 74.75 Z"
         style="fill:#f4f4f4;fill-opacity:0.95686275;stroke:#f4f4f4;stroke-width:0.26499999;stroke-linecap:butt;stroke-linejoin:miter;stroke-miterlimit:4;stroke-dasharray:none;stroke-opacity:0.95686275" />
      <path
         sodipodi:nodetypes="ccccccccc"
         inkscape:connector-curvature="0"
         id="path1322"
         d="m 243.41667,74.75 v 15.875 h 15.875 v 42.33333 h 15.875 V 90.625 h 15.875 V 74.75 Z"
         style="fill:#f4f4f4;fill-opacity:0.95686275;stroke:#f4f4f4;stroke-width:0.26499999;stroke-linecap:butt;stroke-linejoin:miter;stroke-miterlimit:4;stroke-dasharray:none;stroke-opacity:0.95686275" />
      <path
         style="fill:#f4f4f4;fill-opacity:0.95686275;stroke:#f4f4f4;stroke-width:0.26499999;stroke-linecap:butt;stroke-linejoin:miter;stroke-miterlimit:4;stroke-dasharray:none;stroke-opacity:0.95686275"
         d="m 296.33334,74.75 v 58.20833 H 333.375 v -15.875 H 317.5 v -5.29166 h 15.875 V 95.916667 H 317.5 V 90.625 h 15.875 V 74.75 Z"
         id="path1324"
         inkscape:connector-curvature="0" />
      <path
         style="fill:#f4f4f4;fill-opacity:0.95686275;stroke:#f4f4f4;stroke-width:1.00157475;stroke-linecap:butt;stroke-linejoin:miter;stroke-miterlimit:4;stroke-dasharray:none;stroke-opacity:0.95686275"
         d="m 1280,282.51953 v 220 l 65,-107.41601 c 0,0 -27.9376,-48.38956 -41.9062,-72.58399 -7.698,-13.33333 -23.0938,-40 -23.0938,-40 z m 40,0 40,69.28125 40,-69.28125 z m 125,0 -23.0938,40 -41.9062,72.58399 65,107.41601 z m -85,150.71875 -40,69.28125 h 80 z"
         transform="scale(0.26458333)"
         id="path1326"
         inkscape:connector-curvature="0" />
      <path
         style="fill:#f4f4f4;fill-opacity:0.95686275;stroke:#f4f4f4;stroke-width:0.26499999;stroke-linecap:butt;stroke-linejoin:miter;stroke-miterlimit:4;stroke-dasharray:none;stroke-opacity:0.95686275"
         d="m 386.29167,74.75 v 15.875 h 15.875 v 42.33333 h 15.875 V 90.625 h 15.875 V 74.75 Z"
         id="path1328"
         inkscape:connector-curvature="0"
         sodipodi:nodetypes="ccccccccc" />
    </g>
    <path
       inkscape:connector-curvature="0"
       id="path366-7"
       d="M -6.5111954,77.653655 V 135.32483 H 50.241082 V 77.653655 Z"
       style="fill:#f4f4f4;fill-opacity:0.95686275;stroke:#f4f4f4;stroke-width:1.09627008;stroke-linecap:butt;stroke-linejoin:miter;stroke-miterlimit:4;stroke-dasharray:none;stroke-opacity:0.95686275" />
  </g>
  <g
     inkscape:label="Layer 1"
     inkscape:groupmode="layer"
     id="layer1"
     transform="translate(9.2535831,-72.576013)">
    <g
       id="g1312">
      <path
         sodipodi:nodetypes="ccccccccc"
         inkscape:connector-curvature="0"
         id="path447"
         d="m 63.5,74.75 v 15.875 h 15.874999 v 42.33333 h 15.875 V 90.625 H 111.125 V 74.75 Z"
         style="fill:#2f5596;fill-opacity:1;stroke:#f4f4f4;stroke-width:1.16499996;stroke-linecap:butt;stroke-linejoin:miter;stroke-miterlimit:4;stroke-dasharray:none;stroke-opacity:0.95686275" />
      <path
         inkscape:connector-curvature="0"
         id="path449"
         d="m 116.41667,74.75 v 58.20833 h 37.04166 v -15.875 h -15.875 v -5.29166 h 15.875 V 95.916667 h -15.875 V 90.625 h 15.875 V 74.75 Z"
         style="fill:#2f5596;fill-opacity:1;stroke:#f4f4f4;stroke-width:1.16499996;stroke-linecap:butt;stroke-linejoin:miter;stroke-miterlimit:4;stroke-dasharray:none;stroke-opacity:0.95686275" />
      <path
         inkscape:connector-curvature="0"
         id="path451"
         d="m 158.75,74.75 v 58.20833 h 37.04166 v -15.875 h -15.875 V 74.75 Z"
         style="fill:#2f5596;fill-opacity:1;stroke:#f4f4f4;stroke-width:1.16499996;stroke-linecap:butt;stroke-linejoin:miter;stroke-miterlimit:4;stroke-dasharray:none;stroke-opacity:0.95686275" />
      <path
         style="fill:#2f5596;fill-opacity:1;stroke:#f4f4f4;stroke-width:1.16499996;stroke-linecap:butt;stroke-linejoin:miter;stroke-miterlimit:4;stroke-dasharray:none;stroke-opacity:0.95686275"
         d="m 201.08333,74.75 v 58.20833 h 37.04166 v -15.875 h -15.875 v -5.29166 h 15.875 V 95.916667 h -15.875 V 90.625 h 15.875 V 74.75 Z"
         id="path453"
         inkscape:connector-curvature="0" />
      <path
         style="fill:#2f5596;fill-opacity:1;stroke:#f4f4f4;stroke-width:1.16499996;stroke-linecap:butt;stroke-linejoin:miter;stroke-miterlimit:4;stroke-dasharray:none;stroke-opacity:0.95686275"
         d="m 243.41667,74.75 v 15.875 h 15.875 v 42.33333 h 15.875 V 90.625 h 15.875 V 74.75 Z"
         id="path457"
         inkscape:connector-curvature="0"
         sodipodi:nodetypes="ccccccccc" />
      <path
         inkscape:connector-curvature="0"
         id="path459"
         d="m 296.33334,74.75 v 58.20833 H 333.375 v -15.875 H 317.5 v -5.29166 h 15.875 V 95.916667 H 317.5 V 90.625 h 15.875 V 74.75 Z"
         style="fill:#2f5596;fill-opacity:1;stroke:#f4f4f4;stroke-width:1.16499996;stroke-linecap:butt;stroke-linejoin:miter;stroke-miterlimit:4;stroke-dasharray:none;stroke-opacity:0.95686275" />
      <path
         id="path461"
         transform="scale(0.26458333)"
         d="m 1280,282.51953 v 220 l 65,-107.41601 c 0,0 -27.9376,-48.38956 -41.9062,-72.58399 -7.698,-13.33333 -23.0938,-40 -23.0938,-40 z m 40,0 40,69.28125 40,-69.28125 z m 125,0 -23.0938,40 -41.9062,72.58399 65,107.41601 z m -85,150.71875 -40,69.28125 h 80 z"
         style="fill:#2f5596;fill-opacity:1;stroke:#f4f4f4;stroke-width:4.4031496;stroke-linecap:butt;stroke-linejoin:miter;stroke-miterlimit:4;stroke-dasharray:none;stroke-opacity:0.95686275"
         inkscape:connector-curvature="0" />
      <path
         sodipodi:nodetypes="ccccccccc"
         inkscape:connector-curvature="0"
         id="path471"
         d="m 386.29167,74.75 v 15.875 h 15.875 v 42.33333 h 15.875 V 90.625 h 15.875 V 74.75 Z"
         style="fill:#2f5596;fill-opacity:1;stroke:#f4f4f4;stroke-width:1.16499996;stroke-linecap:butt;stroke-linejoin:miter;stroke-miterlimit:4;stroke-dasharray:none;stroke-opacity:0.95686275" />
    </g>
    <g
       aria-label="curio"
       style="font-style:normal;font-variant:normal;font-weight:300;font-stretch:normal;font-size:24.33394051px;line-height:1.25;font-family:Bahnschrift;-inkscape-font-specification:'Bahnschrift Light';letter-spacing:0px;word-spacing:0px;fill:#f4f4f4;fill-opacity:0.95686275;stroke:none;stroke-width:0.60834849"
       id="text6470"
       transform="translate(-73.37133,45.048703)" />
    <path
       inkscape:connector-curvature="0"
       id="path366"
       d="M -8.7026274,74.718463 V 132.98988 H 48.044608 V 74.718463 Z"
       style="fill:#2f5596;fill-opacity:1;stroke:#f4f4f4;stroke-width:1.10191131;stroke-linecap:butt;stroke-linejoin:miter;stroke-miterlimit:4;stroke-dasharray:none;stroke-opacity:0.95686275" />
    <g
       id="g140"
       transform="matrix(0.63545037,0,0,0.63545037,9.9916489,19.599907)">
      <path
         transform="translate(-73.371329,45.048703)"
         inkscape:connector-curvature="0"
         id="path6488"
         style="font-style:normal;font-variant:normal;font-weight:300;font-stretch:normal;font-size:24.33394051px;line-height:1.25;font-family:Bahnschrift;-inkscape-font-specification:'Bahnschrift Light';letter-spacing:0px;word-spacing:0px;fill:#f4f4f4;fill-opacity:0.95686275;stroke:none;stroke-width:0.60834849"
         d="m 68.845268,66.74297 q -1.782271,0 -2.970451,-0.59409 -1.188181,-0.594091 -1.782272,-1.782271 -0.582208,-1.188181 -0.582208,-2.982334 v -2.031789 q 0,-1.770389 0.59409,-2.946688 0.594091,-1.176299 1.77039,-1.758507 1.18818,-0.594091 2.970451,-0.594091 1.009954,0 1.84168,0.225755 0.831727,0.213872 1.485226,0.653499 0.6535,0.427745 1.140654,1.093126 v 0 l -1.271354,1.128772 v 0 q -0.629735,-0.760436 -1.425817,-1.128772 -0.784199,-0.380217 -1.734743,-0.380217 -1.84168,0 -2.75658,0.92678 -0.903017,0.9149 -0.903017,2.780343 v 2.031789 q 0,1.889208 0.914899,2.82787 0.914899,0.938663 2.744698,0.938663 1.009953,0 1.829798,-0.356454 0.831726,-0.356454 1.497108,-1.081245 v 0 l 1.105008,1.093127 v 0 q -0.487154,0.653499 -1.140654,1.081244 -0.653499,0.427745 -1.485226,0.641618 -0.831726,0.213872 -1.84168,0.213872 z" />
      <path
         inkscape:connector-curvature="0"
         id="path6490"
         style="font-style:normal;font-variant:normal;font-weight:300;font-stretch:normal;font-size:24.33394051px;line-height:1.25;font-family:Bahnschrift;-inkscape-font-specification:'Bahnschrift Light';letter-spacing:0px;word-spacing:0px;fill:#f4f4f4;fill-opacity:0.95686275;stroke:none;stroke-width:0.60834849"
         d="m 83.851991,54.231427 h 1.699098 v 12.333316 h -1.699098 z m -6.43994,7.497421 q 0,1.627807 0.843609,2.530825 0.843608,0.891135 2.388243,0.891135 1.532753,0 2.364479,-0.819845 0.843609,-0.819844 0.843609,-2.316952 l 0.166345,2.578352 q -0.451509,0.914899 -1.497108,1.532753 -1.033717,0.617854 -2.554588,0.617854 -2.043671,0 -3.160561,-1.306999 -1.105008,-1.31888 -1.105008,-3.707123 v -7.497421 h 1.71098 z"
         transform="translate(-73.371329,45.048703)" />
      <path
         inkscape:connector-curvature="0"
         id="path6492"
         style="font-style:normal;font-variant:normal;font-weight:300;font-stretch:normal;font-size:24.33394051px;line-height:1.25;font-family:Bahnschrift;-inkscape-font-specification:'Bahnschrift Light';letter-spacing:0px;word-spacing:0px;fill:#f4f4f4;fill-opacity:0.95686275;stroke:none;stroke-width:0.60834849"
         d="m 89.246331,54.231427 h 1.71098 v 12.333316 h -1.71098 z m 7.259784,2.210017 q -0.380218,-0.3921 -0.962427,-0.594091 -0.570326,-0.20199 -1.330762,-0.20199 -1.544635,0 -2.400125,0.831726 -0.85549,0.819845 -0.85549,2.281307 l -0.249518,-2.376361 q 0.677263,-1.105009 1.770389,-1.710981 1.105008,-0.617854 2.412007,-0.617854 0.843608,0 1.520871,0.249518 0.689145,0.237636 1.200063,0.712909 z"
         transform="translate(-73.371329,45.048703)" />
      <path
         inkscape:connector-curvature="0"
         id="path6494"
         style="font-style:normal;font-variant:normal;font-weight:300;font-stretch:normal;font-size:24.33394051px;line-height:1.25;font-family:Bahnschrift;-inkscape-font-specification:'Bahnschrift Light';letter-spacing:0px;word-spacing:0px;fill:#f4f4f4;fill-opacity:0.95686275;stroke:none;stroke-width:0.60834849"
         d="m 100.01125,49.288596 h 1.71098 v 1.71098 h -1.71098 z m 0,4.942831 h 1.71098 v 12.333316 h -1.71098 z"
         transform="translate(-73.371329,45.048703)" />
      <path
         inkscape:connector-curvature="0"
         id="path6496"
         style="font-style:normal;font-variant:normal;font-weight:300;font-stretch:normal;font-size:24.33394051px;line-height:1.25;font-family:Bahnschrift;-inkscape-font-specification:'Bahnschrift Light';letter-spacing:0px;word-spacing:0px;fill:#f4f4f4;fill-opacity:0.95686275;stroke:none;stroke-width:0.60834849"
         d="m 110.51476,66.74297 q -1.60404,0 -2.74469,-0.629736 -1.14066,-0.629735 -1.74663,-1.829798 -0.59409,-1.211944 -0.59409,-2.911043 v -2.008025 q 0,-1.675335 0.59409,-2.863515 0.60597,-1.200063 1.74663,-1.817917 1.14065,-0.629736 2.74469,-0.629736 1.60405,0 2.7447,0.629736 1.14066,0.617854 1.73475,1.817917 0.60597,1.18818 0.60597,2.863515 v 2.043671 q 0,1.687216 -0.60597,2.887279 -0.59409,1.188181 -1.73475,1.817916 -1.14065,0.629736 -2.7447,0.629736 z m -0.0119,-1.592162 q 1.61593,0 2.49518,-0.974308 0.89114,-0.98619 0.89114,-2.768461 v -2.043671 q 0,-1.770389 -0.89114,-2.744697 -0.87925,-0.974308 -2.49518,-0.974308 -1.60404,0 -2.4833,0.974308 -0.87925,0.974308 -0.87925,2.744697 v 2.043671 q 0,1.782271 0.87925,2.768461 0.87926,0.974308 2.4833,0.974308 z"
         transform="translate(-73.371329,45.048703)" />
    </g>
    <g
       id="g344"
       transform="matrix(0.20395445,0,0,0.20395445,-2.0287706,109.24535)">
      <path
         style="display:inline;fill:none;stroke:#000000;stroke-width:0.25349295px;stroke-linecap:butt;stroke-linejoin:miter;stroke-opacity:1"
         d="m 31.401018,30.624055 c 0.6022,2.54617 15.1285,73.796885 97.906902,62.70604 64.54171,-8.64743 48.7224,-63.55419 46.18861,-76.33174"
         id="path983"
         inkscape:connector-curvature="0"
         sodipodi:nodetypes="csc" />
      <path
         inkscape:connector-curvature="0"
         id="path985"
         d="M 78.107517,88.143985 63.092519,114.15082"
         style="display:inline;fill:none;stroke:#000000;stroke-width:0.26458332px;stroke-linecap:butt;stroke-linejoin:miter;stroke-opacity:1" />
      <path
         inkscape:connector-curvature="0"
         id="path987"
         d="m 143.26022,90.561715 14.02061,24.284505"
         style="display:inline;fill:none;stroke:#000000;stroke-width:0.26458332px;stroke-linecap:butt;stroke-linejoin:miter;stroke-opacity:1" />
      <path
         inkscape:connector-curvature="0"
         id="path1222"
         d="m 106.92342,94.174035 c -0.294,-0.0229 -1.4667,-0.10741 -2.6059,-0.1878 -14.174702,-1.00023 -27.385102,-5.3059 -38.286401,-12.47864 -4.5569,-2.99833 -7.8355,-5.68354 -11.828801,-9.68792 -4.7435,-4.75674 -8.4472,-9.50401 -12.0492,-15.44454 -2.2307,-3.67898 -2.4581,-4.18234 -2.8371,-6.28083 -0.7577,-4.19628 -1.0141,-7.10082 -1.0141,-11.49053 0,-8.10067 1.5284,-15.63986 4.83,-23.82511 1.1091,-2.74971 2.1054,-4.9117095 4.6957,-10.1893895 1.0647,-2.16955 2.314701,-4.90023002 2.7775,-6.06818 1.173601,-2.96103 1.8063,-3.86023 3.382001,-4.80625 2.131899,-1.27998 5.7447,-1.161 9.3672,0.30853 0.9353,0.37943 1.808099,0.92043 3.879498,2.4047 3.373901,2.41751 9.2266,6.30641 12.679402,8.42482 12.0391,7.3865995 21.930601,11.6309295 27.945601,11.9910995 l 1.3364,0.08 -3.80859,-3.86097 c -14.910612,-15.1156995 -23.043811,-26.84104 -21.736711,-31.33723 0.795999,-2.73805 3.6092,-1.83665 8.7073,2.78997 1.853308,1.68196 5.919309,5.8106505 10.558601,10.7214505 10.51471,11.13007 15.97621,15.8228095 20.2154,17.3699495 1.2706,0.46371 3.5502,0.81002 10.9868,1.66919 8.3445,0.96405 11.4552,1.47428 14.6999,2.41116 3.373,0.97392 5.8073,2.35405 7.09421,4.0222 1.21299,1.57222 0.91949,0.0245 -0.5837,-3.07809 -1.05141,-2.17013 -2.27811,-3.97628 -3.7367,-5.50208 -2.47481,-2.5886195 -4.67211,-3.8143495 -8.24631,-4.6001395 -4.3069,-0.94686 -7.9185,-3.81003 -9.4744,-7.51090002 -0.3015,-0.71719 -0.35289,-1.03318998 -0.3536,-2.17541998 0,-1.56978 0.2271,-2.2041 1.1567,-3.21916 2.216,-2.41964 6.9513,-3.44475 13.8765,-3.00403 9.3981,0.59808 16.0697,2.97254 20.8093,7.40620998 1.0974,1.02659 2.62271,3.05374002 3.3458,4.44659002 1.5393,2.96527 2.2317,6.7951195 1.9056,10.5401995 -0.22259,2.55635 -0.5028,3.81972 -2.3453,10.5768 -0.91899,3.37014 -1.99749,7.45053 -2.3967,9.06751 -2.9206,11.83165 -3.4047,19.43977 -1.7218,27.06104 0.4535,2.05347 1.45571,5.06371 2.3138,6.94901 0.3847,0.84524 0.8233,1.81664 0.9748,2.15866 l 0.2755,0.62186 -0.754,1.12146 c -1.21569,1.80835 -2.9587,3.9025 -4.75849,5.71717 -9.93541,10.0173 -25.5338,15.57658 -47.24861,16.83946 -2.0369,0.11846 -10.68009,0.15306 -12.0271,0.0482 z"
         style="display:inline;fill:#f7e8df;fill-opacity:1;stroke-width:0.6470027;stroke-miterlimit:4;stroke-dasharray:none" />
      <path
         inkscape:connector-curvature="0"
         id="path1259"
         d="m 67.760417,51.607185 -5.602898,9.7045"
         style="display:inline;fill:#ff00cc;stroke:#ff00cc;stroke-width:0.26458332px;stroke-linecap:butt;stroke-linejoin:miter;stroke-opacity:1" />
      <path
         style="display:inline;fill:#ff00cc;stroke:#ff00cc;stroke-width:0.26458332px;stroke-linecap:butt;stroke-linejoin:miter;stroke-opacity:1"
         d="m 76.179419,51.607185 -5.602901,9.7045"
         id="path1261"
         inkscape:connector-curvature="0" />
      <path
         inkscape:connector-curvature="0"
         id="path1263"
         d="m 83.930219,51.607185 -5.602902,9.7045"
         style="display:inline;fill:#ff00cc;stroke:#ff00cc;stroke-width:0.26458332px;stroke-linecap:butt;stroke-linejoin:miter;stroke-opacity:1" />
      <path
         style="display:inline;fill:#ff00cc;stroke:#ff00cc;stroke-width:0.26458332px;stroke-linecap:butt;stroke-linejoin:miter;stroke-opacity:1"
         d="m 153.24663,51.607185 5.60289,9.7045"
         id="path1265"
         inkscape:connector-curvature="0" />
      <path
         inkscape:connector-curvature="0"
         id="path1267"
         d="m 144.82762,51.607185 5.6029,9.7045"
         style="display:inline;fill:#ff00cc;stroke:#ff00cc;stroke-width:0.26458332px;stroke-linecap:butt;stroke-linejoin:miter;stroke-opacity:1" />
      <path
         style="display:inline;fill:#ff00cc;stroke:#ff00cc;stroke-width:0.26458332px;stroke-linecap:butt;stroke-linejoin:miter;stroke-opacity:1"
         d="m 137.07682,51.607185 5.60291,9.7045"
         id="path1269"
         inkscape:connector-curvature="0" />
      <path
         inkscape:connector-curvature="0"
         id="path1378"
         d="m 102.99532,65.203715 c 0,0 3.1687,4.70638 8.15171,4.70638 4.98299,0 13.189,-3.53398 13.189,-3.53398"
         style="display:inline;fill:none;stroke:#000000;stroke-width:1.28100014;stroke-linecap:butt;stroke-linejoin:miter;stroke-miterlimit:4;stroke-dasharray:none;stroke-opacity:1" />
      <path
         inkscape:connector-curvature="0"
         id="path1389"
         d="m 76.630328,5.4734455 c 0,0 11.6269,-2.92406 15.8364,3.00049 4.209491,5.9245495 6.468591,13.6559895 7.3436,16.9105995 0.874992,3.25459 1.877192,7.43982 0.540892,11.13586 -1.336402,3.69606 -0.868602,8.2074 -4.944501,9.07706 -4.0758,0.86965 -11.425801,-0.48918 -14.0985,0 -2.672702,0.48918 -6.849901,1.26373 -9.6217,-0.48918 -2.771801,-1.75291 -7.1751,-4.93041 -7.964,-11.86839 -0.789001,-6.93796 0.01299,-10.96014 1.749999,-15.03666 1.737301,-4.07652 6.6157,-10.3161495 8.8867,-11.5229695 2.27111,-1.20681 2.27111,-1.20681 2.27111,-1.20681 z"
         style="display:inline;fill:#ffffff;fill-opacity:1;stroke:none;stroke-width:0.2386338px;stroke-linecap:butt;stroke-linejoin:miter;stroke-opacity:1" />
      <path
         inkscape:connector-curvature="0"
         id="path1391"
         d="m 127.13892,1.5213755 c 0,0 -4.25069,4.14932 -4.1244,12.3028895 0.1265,8.15357 -1.4698,14.85049 1.0976,20.27415 2.5673,5.42365 7.1169,10.25955 11.1609,11.83404 4.044,1.57447 10.23641,1.85563 14.9123,0.22492 4.6759,-1.63071 6.7611,-3.31766 7.77201,-6.18547 1.0111,-2.8678 3.7914,-11.63992 3.60179,-13.0457 -0.1896,-1.40578 -0.6318,-6.35416 -1.9588,-8.37849 -1.32699,-2.02434 -7.64569,-10.8526895 -12.0689,-13.0457195 -4.4231,-2.19302 -12.0056,-6.29792002 -14.4068,-6.35415002 -2.4011,-0.0562 -5.9857,2.37353002 -5.9857,2.37353002 z"
         style="display:inline;fill:#ffffff;fill-opacity:1;stroke:none;stroke-width:0.23640826;stroke-linecap:butt;stroke-linejoin:miter;stroke-miterlimit:4;stroke-dasharray:none;stroke-opacity:1" />
      <path
         inkscape:connector-curvature="0"
         id="path1528"
         d="m 135.71257,114.52515 c -23.30982,-0.1828 -34.2713,-0.26496 -53.365882,-0.39999 -10.392519,-0.0735 -18.90599,-0.14146 -18.918849,-0.15104 -0.0461,-0.0343 14.7301,-25.572435 14.79622,-25.572785 0.0372,-2e-4 0.81185,0.28603 1.72154,0.63607 7.9584,3.06235 16.48224,4.82538 26.435501,5.46777 2.43477,0.15715 10.35698,0.1311 13.00546,-0.0428 7.87696,-0.51709 14.56206,-1.48645 20.54344,-2.97887 1.02862,-0.25666 2.16315,-0.55284 2.52116,-0.65818 l 0.65095,-0.19153 1.53649,2.65871 c 6.08923,10.536715 12.30173,21.308885 12.30173,21.330585 0,0.0435 -7.75949,0.008 -21.22776,-0.098 z"
         style="display:inline;fill:#ffffff;fill-opacity:1;stroke:none;stroke-width:0.38277763;stroke-miterlimit:4;stroke-dasharray:none;stroke-opacity:1" />
      <g
         transform="translate(-1102.9306,-104.4518)"
         id="g1220"
         style="display:inline">
        <g
           transform="translate(-0.75595238,-9.4494048)"
           id="g1257">
          <path
             id="path1052"
             d="m 1256.981,124.16184 c -1.6329,-1.55345 -3.5133,-2.9945 -5.6421,-4.20608 -7.9696,-4.53577 -12.1642,-6.63872 -15.6877,-6.1439 -3.5233,0.49481 -4.8237,1.97924 -4.8237,1.97924"
             style="fill:none;stroke:#000000;stroke-width:0.97408569;stroke-linecap:butt;stroke-linejoin:miter;stroke-miterlimit:4;stroke-dasharray:none;stroke-opacity:1"
             inkscape:connector-curvature="0"
             sodipodi:nodetypes="cssc" />
          <path
             id="path1054"
             d="m 1260.3128,155.58975 c 2.8348,-5.78146 5.5049,-14.04835 4.5326,-18.52177 -0.7686,-3.53574 -3.3845,-8.64396 -7.8644,-12.90614"
             style="fill:none;stroke:#000000;stroke-width:0.97408569;stroke-linecap:butt;stroke-linejoin:miter;stroke-miterlimit:4;stroke-dasharray:none;stroke-opacity:1"
             inkscape:connector-curvature="0"
             sodipodi:nodetypes="csc" />
          <path
             id="path1056"
             d="m 1227.3803,145.74656 c 0.9091,3.16454 7.6075,15.23816 15.7067,15.18957 0.3499,-0.0166 2.2396,-0.008 2.6498,0.0178 0,0 9.8998,1.11262 14.5475,-5.36518"
             style="fill:none;stroke:#000000;stroke-width:1.07711792;stroke-linecap:butt;stroke-linejoin:miter;stroke-miterlimit:4;stroke-dasharray:none;stroke-opacity:1"
             inkscape:connector-curvature="0"
             sodipodi:nodetypes="cccc" />
          <path
             style="fill:none;stroke:#000000;stroke-width:0.90808675;stroke-linecap:butt;stroke-linejoin:miter;stroke-opacity:1;stroke-miterlimit:4;stroke-dasharray:none"
             d="m 1239.2265,128.67738 c 0,0 -2.9659,-0.42881 -4.1987,1.48295 -1.2327,1.91175 -2.6085,3.2875 -2.8051,6.23552 -0.1964,2.94803 0.1608,7.30754 1.0185,8.46888 0.8576,1.16135 1.2506,3.10883 3.3053,4.30591 2.0547,1.19707 2.9302,1.80455 4.0379,1.78668 1.1078,-0.0178 3.77,-0.0357 5.3243,-2.25122 1.5545,-2.21549 1.8403,-4.46671 2.1798,-7.14673 0.3394,-2.68003 -0.1251,-4.18084 -0.1251,-4.18084 0,0 -0.8397,-3.7699 -3.5019,-5.61018 -2.6621,-1.8403 -2.3941,-2.19763 -5.235,-3.09097 z"
             id="path1058"
             inkscape:connector-curvature="0"
             sodipodi:nodetypes="ccccccccccc" />
          <circle
             style="fill:#000000;fill-opacity:1;stroke-width:1.5951575;stroke-miterlimit:4;stroke-dasharray:none"
             id="circle1060"
             cx="1236.6836"
             cy="142.73466"
             r="1.6855115" />
        </g>
      </g>
      <g
         id="g1289"
         transform="translate(-282.51229,-114.56439)"
         style="display:inline">
        <path
           inkscape:connector-curvature="0"
           id="path1273"
           d="m 345.9137,163.94046 c 0,0 -0.11574,-3.81956 15.99587,-3.65752 16.11162,0.16204 26.82954,2.26859 26.82954,2.26859"
           style="fill:none;stroke:#000000;stroke-width:1.08438826;stroke-linecap:butt;stroke-linejoin:miter;stroke-miterlimit:4;stroke-dasharray:none;stroke-opacity:1"
           sodipodi:nodetypes="csc" />
        <g
           id="g1275"
           transform="matrix(0.77188996,0,0,0.77188996,81.807107,33.29884)" />
        <g
           id="g1287">
          <path
             sodipodi:nodetypes="csc"
             inkscape:connector-curvature="0"
             style="fill:none;stroke:#000000;stroke-width:1.14545882;stroke-linecap:butt;stroke-linejoin:miter;stroke-miterlimit:4;stroke-dasharray:none;stroke-opacity:1"
             d="m 376.12652,160.84204 c 2.85922,-1.25877 5.52875,-3.25579 6.10755,-6.52151 1.07359,-6.05739 1.39567,-11.35762 0.16103,-14.34178"
             id="path1277" />
          <path
             sodipodi:nodetypes="csccc"
             inkscape:connector-curvature="0"
             style="fill:none;stroke:#000000;stroke-width:1.14525735;stroke-linecap:butt;stroke-linejoin:miter;stroke-miterlimit:4;stroke-dasharray:none;stroke-opacity:1"
             d="m 359.6402,120.04196 c -2.44765,1.15655 -4.93826,2.99691 -7.08909,5.88876 -7.35409,9.88781 -5.92974,15.34609 -5.58201,21.91354 0.77664,5.17103 1.46557,7.21253 5.09706,10.12853 1.61071,0.97482 3.06175,1.738 5.43182,2.56"
             id="path1279" />
          <path
             inkscape:connector-curvature="0"
             id="path1281"
             d="m 370.09259,133.60898 c 0,0 2.47723,-0.35816 3.50692,1.23862 1.02969,1.59677 2.17877,2.74584 2.34292,5.20814 0.16415,2.46231 -0.13431,6.10354 -0.85061,7.07355 -0.71632,0.96999 -1.04462,2.59661 -2.76077,3.59645 -1.71615,0.99985 -2.44738,1.50724 -3.37262,1.49231 -0.92523,-0.0149 -3.14877,-0.0298 -4.44707,-1.88031 -1.2983,-1.85045 -1.53708,-3.73076 -1.82061,-5.96923 -0.28355,-2.23846 0.10446,-3.492 0.10446,-3.492 0,0 0.70138,-3.14876 2.92492,-4.68584 2.22353,-1.53708 1.99969,-1.83554 4.37246,-2.58169 z"
             style="fill:none;stroke:#000000;stroke-width:0.90808675;stroke-linecap:butt;stroke-linejoin:miter;stroke-opacity:1;stroke-miterlimit:4;stroke-dasharray:none"
             sodipodi:nodetypes="csssccccccc" />
          <circle
             r="1.7956904"
             cy="143.43571"
             cx="372.44003"
             id="circle1283"
             style="fill:#000000;fill-opacity:1;stroke-width:1.69943023;stroke-miterlimit:4;stroke-dasharray:none" />
          <path
             inkscape:connector-curvature="0"
             id="path1285"
             d="m 345.9137,163.94046 c 0,0 -0.11574,-3.81956 15.99587,-3.65752 16.11162,0.16204 26.82954,2.26859 26.82954,2.26859"
             style="fill:none;stroke:#000000;stroke-width:1.08438826;stroke-linecap:butt;stroke-linejoin:miter;stroke-miterlimit:4;stroke-dasharray:none;stroke-opacity:1"
             sodipodi:nodetypes="csc" />
        </g>
      </g>
      <path
         style="display:inline;fill:#917489;fill-opacity:1;stroke:#000000;stroke-width:0.26458332px;stroke-linecap:butt;stroke-linejoin:miter;stroke-opacity:1"
         d="m 64.795819,-5.5758145 c 0,0 28.970298,21.7898495 43.937401,22.3243895 0,0 -29.399703,-28.33057 -24.989702,-35.81412 4.409901,-7.48354 28.998702,29.93419 41.025902,31.93871 12.0271,2.00452 27.796,1.73725 31.805,8.41898 0,0 -3.0761,-11.7280795 -13.0925,-13.5234595 -10.0164,-1.79538 -17.7649,-16.53645 2.0789,-16.44197 19.8437,0.0945 33.35641,9.44941998 28.2537,28.3482195 -5.10269,18.89882 -10.2998,33.82888 -2.3623,49.70388 7.9375,15.875 0.7559,34.206845 0.7559,34.206845 0,0 18.5208,-18.898815 15.30801,-57.074405 -3.21281,-38.1756095 17.7649,-66.14583 -17.7648,-88.82441 -35.5298,-22.678574 -35.3535,-37.267044 -99.785812,-20.221734 -71.5313998,18.923371 -38.5623,131.863634 -16.072699,144.525834 -6.520101,-28.5372 -6.227801,-75.0727095 -3.204001,-84.2386195 3.023801,-9.1659405 14.107001,-3.32814 14.107001,-3.32814 z"
         id="path1019"
         inkscape:connector-curvature="0"
         sodipodi:nodetypes="ccsscsssscssscsc" />
    </g>
  </g>
</svg>
